<svg xmlns="http://www.w3.org/2000/svg" xmlns:svg="http://www.w3.org/2000/svg" xmlns:xlink="http://www.w3.org/1999/xlink" id="svg5826" width="295.468" height="375.408" version="1.1" viewBox="0 0 78.176 99.327"><defs id="defs5820"><style id="style2">.cls-15,.cls-37,.cls-38,.cls-39,.cls-40,.cls-41,.cls-42,.cls-43,.cls-44,.cls-45,.cls-46,.cls-47{stroke:#010101}.cls-15,.cls-44,.cls-45,.cls-46,.cls-47{stroke-miterlimit:7.95}.cls-37,.cls-38,.cls-39,.cls-40,.cls-41,.cls-42,.cls-43{stroke-linecap:round;stroke-linejoin:round;stroke-width:.9px}.cls-15,.cls-44,.cls-45,.cls-46,.cls-47{stroke-width:.64px}.cls-15{fill:#fff}.cls-37{fill:url(#linear-gradient-36)}.cls-38{fill:url(#linear-gradient-37)}.cls-39{fill:url(#linear-gradient-38)}.cls-40{fill:url(#linear-gradient-39)}.cls-41{fill:url(#linear-gradient-40)}.cls-42{fill:url(#linear-gradient-41)}.cls-43{fill:url(#linear-gradient-42)}.cls-44{fill:url(#linear-gradient-43)}.cls-45{fill:url(#linear-gradient-44)}.cls-46{fill:url(#linear-gradient-45)}.cls-47{fill:url(#linear-gradient-46)}</style><linearGradient id="linear-gradient-33" x1="304.88" x2="328.14" y1="157.16" y2="157.16" gradientUnits="userSpaceOnUse"><stop id="stop40" offset="0" stop-color="#95c11f"/><stop id="stop42" offset=".67" stop-color="#3aaa35"/><stop id="stop44" offset="1" stop-color="#008d36"/></linearGradient><linearGradient id="linear-gradient-34" x1="304.88" x2="328.14" y1="195.99" y2="195.99" gradientTransform="matrix(2.4237223,0,0,2.4237223,4.9091757,-140.38048)" xlink:href="#linear-gradient-33"/><linearGradient id="linear-gradient-35" x1="293.14" x2="305.8" y1="171.38" y2="171.38" xlink:href="#linear-gradient-33"/><linearGradient id="linear-gradient-36" x1="30.59" x2="73.1" y1="131.66" y2="131.66" xlink:href="#linear-gradient-33"/><linearGradient id="linear-gradient-37" x1="0" x2="32.71" y1="145.15" y2="145.15" xlink:href="#linear-gradient-33"/><linearGradient id="linear-gradient-38" x1="0" x2="9.97" y1="173.45" y2="173.45" xlink:href="#linear-gradient-33"/><linearGradient id="linear-gradient-39" x1=".009" x2="27.62" y1="200.94" y2="200.94" xlink:href="#linear-gradient-33"/><linearGradient id="linear-gradient-40" x1="55.83" x2="84.07" y1="207.29" y2="207.29" xlink:href="#linear-gradient-33"/><linearGradient id="linear-gradient-41" x1="23.99" x2="65.67" y1="217.67" y2="217.67" xlink:href="#linear-gradient-33"/><linearGradient id="linear-gradient-42" x1="61" x2="84.19" y1="145.11" y2="145.11" xlink:href="#linear-gradient-33"/><linearGradient id="linear-gradient-43" x1="26.59" x2="65.68" y1="155.7" y2="155.7" xlink:href="#linear-gradient-33"/><linearGradient id="linear-gradient-44" x1="16.88" x2="73.9" y1="172.97" y2="172.97" xlink:href="#linear-gradient-33"/><linearGradient id="linear-gradient-45" x1="14.39" x2="42.52" y1="192.89" y2="192.89" xlink:href="#linear-gradient-33"/><linearGradient id="linear-gradient-46" x1="45.51" x2="79.12" y1="194.63" y2="194.63" xlink:href="#linear-gradient-33"/><linearGradient id="linear-gradient-47" x1="99.77" x2="118.38" y1="167.96" y2="167.96" gradientTransform="matrix(2.4237223,0,0,2.4237223,4.9091757,-140.38048)" xlink:href="#linear-gradient-33"/><linearGradient id="linear-gradient-48" x1="88.32" x2="102.06" y1="176.59" y2="176.59" gradientTransform="matrix(2.4237223,0,0,2.4237223,4.9091757,-140.38048)" xlink:href="#linear-gradient-33"/><linearGradient id="linear-gradient-49" x1="274.53" x2="288.01" y1="185.76" y2="185.76" xlink:href="#linear-gradient-33"/><linearGradient id="linear-gradient-50" x1="274.12" x2="288.41" y1="158.58" y2="158.58" xlink:href="#linear-gradient-33"/><linearGradient id="linear-gradient-51" x1="226.52" x2="269.94" y1="166.74" y2="166.74" gradientTransform="matrix(2.4237223,0,0,2.4237223,4.9091757,-140.38048)" xlink:href="#linear-gradient-33"/><linearGradient id="linear-gradient-52" x1="174.83" x2="222.37" y1="196.17" y2="196.17" gradientTransform="matrix(2.4237223,0,0,2.4237223,4.9091757,-140.38048)" xlink:href="#linear-gradient-33"/><linearGradient id="linear-gradient-53" x1="122.56" x2="171.21" y1="196.26" y2="196.26" gradientTransform="matrix(2.4237223,0,0,2.4237223,4.9091757,-140.38048)" xlink:href="#linear-gradient-33"/><linearGradient id="linearGradient4994" x1="304.88" x2="328.14" y1="157.16" y2="157.16" gradientTransform="matrix(2.4237223,0,0,2.4237223,4.9091757,-140.38048)" gradientUnits="userSpaceOnUse" xlink:href="#linear-gradient-33"/><linearGradient id="linear-gradient-38-7" x1="0" x2="9.97" y1="173.45" y2="173.45" gradientTransform="matrix(0.91742785,0,0,0.91742785,24.903575,19.435414)" xlink:href="#linear-gradient-33"/><linearGradient id="linear-gradient-39-7" x1=".009" x2="27.62" y1="200.94" y2="200.94" gradientTransform="matrix(0.91742785,0,0,0.91742785,24.903575,19.435414)" xlink:href="#linear-gradient-33"/><linearGradient id="linear-gradient-40-9" x1="55.83" x2="84.07" y1="207.29" y2="207.29" gradientTransform="matrix(0.91742785,0,0,0.91742785,24.903575,19.435414)" xlink:href="#linear-gradient-33"/><linearGradient id="linear-gradient-41-7" x1="23.99" x2="65.67" y1="217.67" y2="217.67" gradientTransform="matrix(0.91742785,0,0,0.91742785,24.903575,19.435414)" xlink:href="#linear-gradient-33"/><linearGradient id="linear-gradient-46-3" x1="45.51" x2="79.12" y1="194.63" y2="194.63" gradientTransform="matrix(0.91742785,0,0,0.91742785,24.903575,19.435414)" xlink:href="#linear-gradient-33"/><linearGradient id="linear-gradient-45-9" x1="14.39" x2="42.52" y1="192.89" y2="192.89" gradientTransform="matrix(0.91742785,0,0,0.91742785,24.903575,19.435414)" xlink:href="#linear-gradient-33"/><linearGradient id="linear-gradient-44-6" x1="16.88" x2="73.9" y1="172.97" y2="172.97" gradientTransform="matrix(0.91742785,0,0,0.91742785,24.903575,19.435414)" xlink:href="#linear-gradient-33"/><linearGradient id="linear-gradient-43-5" x1="26.59" x2="65.68" y1="155.7" y2="155.7" gradientTransform="matrix(0.91742785,0,0,0.91742785,24.903575,19.435414)" xlink:href="#linear-gradient-33"/><linearGradient id="linear-gradient-42-4" x1="61" x2="84.19" y1="145.11" y2="145.11" gradientTransform="matrix(0.91742785,0,0,0.91742785,24.903575,19.435414)" xlink:href="#linear-gradient-33"/><linearGradient id="linear-gradient-36-0" x1="30.59" x2="73.1" y1="131.66" y2="131.66" gradientTransform="matrix(0.91742785,0,0,0.91742785,24.903575,19.435414)" xlink:href="#linear-gradient-33"/><linearGradient id="linear-gradient-37-7" x1="0" x2="32.71" y1="145.15" y2="145.15" gradientTransform="matrix(0.91742785,0,0,0.91742785,24.903575,19.435414)" xlink:href="#linear-gradient-33"/><linearGradient id="linear-gradient-38-6" x1="0" x2="9.97" y1="173.45" y2="173.45" gradientTransform="matrix(0.64127649,0,0,0.64127649,449.8035,294.75131)" xlink:href="#linear-gradient-33"/><linearGradient id="linear-gradient-39-0" x1=".009" x2="27.62" y1="200.94" y2="200.94" gradientTransform="matrix(0.64127649,0,0,0.64127649,449.8035,294.75131)" xlink:href="#linear-gradient-33"/><linearGradient id="linear-gradient-40-1" x1="55.83" x2="84.07" y1="207.29" y2="207.29" gradientTransform="matrix(0.64127649,0,0,0.64127649,449.8035,294.75131)" xlink:href="#linear-gradient-33"/><linearGradient id="linear-gradient-41-1" x1="23.99" x2="65.67" y1="217.67" y2="217.67" gradientTransform="matrix(0.64127649,0,0,0.64127649,449.8035,294.75131)" xlink:href="#linear-gradient-33"/><linearGradient id="linear-gradient-46-9" x1="45.51" x2="79.12" y1="194.63" y2="194.63" gradientTransform="matrix(0.64127649,0,0,0.64127649,449.8035,294.75131)" xlink:href="#linear-gradient-33"/><linearGradient id="linear-gradient-45-4" x1="14.39" x2="42.52" y1="192.89" y2="192.89" gradientTransform="matrix(0.64127649,0,0,0.64127649,449.8035,294.75131)" xlink:href="#linear-gradient-33"/><linearGradient id="linear-gradient-44-1" x1="16.88" x2="73.9" y1="172.97" y2="172.97" gradientTransform="matrix(0.64127649,0,0,0.64127649,449.8035,294.75131)" xlink:href="#linear-gradient-33"/><linearGradient id="linear-gradient-43-3" x1="26.59" x2="65.68" y1="155.7" y2="155.7" gradientTransform="matrix(0.64127649,0,0,0.64127649,449.8035,294.75131)" xlink:href="#linear-gradient-33"/><linearGradient id="linear-gradient-42-8" x1="61" x2="84.19" y1="145.11" y2="145.11" gradientTransform="matrix(0.64127649,0,0,0.64127649,449.8035,294.75131)" xlink:href="#linear-gradient-33"/><linearGradient id="linear-gradient-36-8" x1="30.59" x2="73.1" y1="131.66" y2="131.66" gradientTransform="matrix(0.64127649,0,0,0.64127649,449.8035,294.75131)" xlink:href="#linear-gradient-33"/><linearGradient id="linear-gradient-37-4" x1="0" x2="32.71" y1="145.15" y2="145.15" gradientTransform="matrix(0.64127649,0,0,0.64127649,449.8035,294.75131)" xlink:href="#linear-gradient-33"/></defs><metadata id="metadata5823"/><g id="layer1" transform="translate(-24.407716,-130.45356)"><path style="fill:url(#linear-gradient-36-0);stroke:#010101;stroke-width:.91703236;stroke-linecap:round;stroke-linejoin:round;stroke-miterlimit:7.94999981;stroke-dasharray:none" id="path970-5-5-2-2" d="m 52.967696,149.57256 c 4.050036,-2.41932 8.143805,-4.7652 12.18344,-7.20181 1.715594,-1.00917 1.889902,-0.91742 3.49541,0 4.125615,2.4334 7.959811,4.69304 12.220135,7.22016 l 11.100869,-4.22935 c -7.795204,-4.56317 -16.001542,-9.37371 -23.504497,-13.76141 -1.513761,-0.91743 -1.651373,-0.91743 -3.064204,0 -3.443907,2.10383 -6.987715,4.04148 -10.495385,6.03668 z" class="cls-37"/><path style="fill:url(#linear-gradient-37-7);stroke:#010101;stroke-width:.91703236;stroke-linecap:round;stroke-linejoin:round;stroke-miterlimit:7.94999981;stroke-dasharray:none" id="path972-8-25-2-3" d="m 34.077861,167.54497 v -5.12842 c 0,-1.50458 0,-1.68806 1.174302,-2.40366 6.133845,-3.56746 12.445616,-7.36411 17.715533,-10.44033 l 1.935768,-11.93573 -7.504557,4.41283 c -7.451753,4.45809 -13.940565,8.13478 -20.587075,12.15591 -1.605508,0.91744 -1.834866,1.37615 -1.834866,3.09173 v 5.95412 z" class="cls-38"/><path style="fill:url(#linear-gradient-38-7);stroke:#010101;stroke-width:.91703236;stroke-linecap:round;stroke-linejoin:round;stroke-miterlimit:7.94999981;stroke-dasharray:none" id="path974-2-1-2-7" d="m 34.077861,189.82012 v -22.27515 l -9.100895,-4.29355 -0.07339,30.60539 z" class="cls-39"/><path style="fill:url(#linear-gradient-39-7);stroke:#010101;stroke-width:.91703236;stroke-linecap:round;stroke-linejoin:round;stroke-miterlimit:7.94999981;stroke-dasharray:none" id="path976-7-6-2-4" d="m 50.242937,208.9485 c -5.072118,-2.95359 -10.130202,-5.9314 -15.183437,-8.91741 -0.999994,-0.58714 -1.018335,-0.71558 -1.018335,-1.83485 l 0.03662,-8.37612 -9.174286,4.03669 -0.03677,9.32106 c 0,1.46939 -0.0029,1.53653 1.447109,2.37397 7.894661,4.67635 13.085307,7.78144 20.571166,12.18562 z" class="cls-40"/><path style="fill:url(#linear-gradient-40-9);stroke:#010101;stroke-width:.91703236;stroke-linecap:round;stroke-linejoin:round;stroke-miterlimit:7.94999981;stroke-dasharray:none" id="path978-9-7-2-7" d="m 85.128063,218.82352 c 5.337142,-3.19013 10.695458,-6.34518 16.059637,-9.48971 0.72338,-0.41763 0.97698,-1.0306 0.76147,-1.83485 -0.51065,-1.94237 -1.0588,-3.88942 -1.55963,-5.81649 -0.486227,-1.88073 -2.330263,-1.3211 -3.577971,-0.58716 -6.861905,4.19115 -14.472172,8.59877 -20.687991,12.25684 z" class="cls-41"/><path style="fill:url(#linear-gradient-41-7);stroke:#010101;stroke-width:.91703236;stroke-linecap:round;stroke-linejoin:round;stroke-miterlimit:7.94999981;stroke-dasharray:none" id="path980-7-5-2-2" d="m 46.92185,217.7558 c 6.897299,4.0555 12.829282,7.5542 18.733868,11.02749 1.183487,0.69724 1.293574,0.71559 2.394499,0.0642 6.517897,-3.83728 10.985246,-6.45041 17.183412,-10.08253 l -9.033398,-5.4584 c -2.985234,1.78588 -5.402079,3.15646 -8.150014,4.77033 -0.720707,0.41609 -1.456951,0.47356 -2.192666,0.0642 -5.201819,-3.06937 -10.408345,-6.1308 -15.614614,-9.19263 z" class="cls-42"/><path style="fill:url(#linear-gradient-42-4);stroke:#010101;stroke-width:.91703236;stroke-linecap:round;stroke-linejoin:round;stroke-miterlimit:7.94999981;stroke-dasharray:none" id="path982-3-2-2-4" d="m 80.866681,149.59091 c 5.489418,3.26937 11.104546,6.33206 16.513706,9.73391 1.348609,0.78899 2.587147,0.5321 2.990813,-0.91742 0.53163,-1.92813 1.0569,-3.85796 1.57797,-5.78898 l 0.16514,-0.58714 c 0.0608,-0.38006 -0.13763,-0.75439 -0.48625,-0.91744 -3.236935,-1.88925 -6.447735,-3.82232 -9.66051,-5.75228 z" class="cls-43"/><path style="fill:url(#linear-gradient-43-5);stroke:#010101;stroke-width:.91703236;stroke-miterlimit:7.94999981;stroke-dasharray:none" id="path986-5-0-2-2" d="m 54.820903,151.85695 13.761422,-2.63301 14.67884,6.12842 1.834851,17.05499 -17.431124,2.91742 -18.458645,-5.08256 z" class="cls-44"/><path style="fill:url(#linear-gradient-44-6);stroke:#010101;stroke-width:.91703236;stroke-miterlimit:7.94999981;stroke-dasharray:none" id="path988-0-7-2-0" d="m 40.389761,173.89357 8.816486,-3.65136 18.458645,5.08256 17.431124,-2.91742 7.633,6.74309 -24.44027,6.16512 -13.385282,-5.45871 z" class="cls-45"/><path style="fill:url(#linear-gradient-45-9);stroke:#010101;stroke-width:.91703236;stroke-miterlimit:7.94999981;stroke-dasharray:none" id="path990-2-6-2-7" d="m 38.105364,181.6642 6.422001,-2.75229 5.944931,1.83485 v 13.24766 l 13.247654,10.96327 0.220188,8.90822 -16.697198,-17.5871 z" class="cls-46"/><path style="fill:url(#linear-gradient-46-3);stroke:#010101;stroke-width:.91703236;stroke-miterlimit:7.94999981;stroke-dasharray:none" id="path992-3-6-2-2" d="m 97.490474,183.94858 -12.788953,14.15592 -18.045808,15.30269 0.917433,-7.76144 13.935729,-9.82565 6.422002,-11.87152 4.110078,-1.37614 z" class="cls-47"/><path style="fill:#fff;stroke:#010101;stroke-width:.91703236;stroke-miterlimit:7.94999981;stroke-dasharray:none" id="path996-9-8-2-9" d="m 63.256527,183.56456 c -0.06796,0.15623 -1.777197,1.19571 -2.848494,1.3565 -1.995253,0.27975 -3.955857,-0.70238 -4.926581,-2.46789 -0.329058,-0.71361 -0.459031,-1.50293 -0.376155,-2.2844" class="cls-15"/><path style="fill:#fff;stroke:#010101;stroke-width:.91703236;stroke-miterlimit:7.94999981;stroke-dasharray:none" id="path1004-8-7-2-8" d="m 81.508875,182.1229 c 0.04435,0.68252 -1.18074,2.24554 -2.165126,3.04586 -1.550729,1.22935 -3.567313,1.70661 -5.504569,1.30276 -1.083514,-0.26716 -2.581968,-0.77526 -2.862371,-1.61468" class="cls-15"/></g></svg>