<?xml version="1.0" encoding="UTF-8" standalone="no"?><!-- Generator: Gravit.io --><svg xmlns="http://www.w3.org/2000/svg" xmlns:xlink="http://www.w3.org/1999/xlink" style="isolation:isolate" viewBox="-26 -26 152 179.377" width="152pt" height="179.377pt"><defs><clipPath id="_clipPath_7ALPZCKY56ZU0ZyplzerdKz0lgA1JZ1o"><rect x="-26" y="-26" width="152" height="179.377"/></clipPath></defs><g clip-path="url(#_clipPath_7ALPZCKY56ZU0ZyplzerdKz0lgA1JZ1o)"><rect x="-26" y="-26" width="152" height="179.377" style="fill:rgb(0,0,0)" fill-opacity="0"/><g filter="url(#IwPPGMVh9XiCZw0rAxuSntNTZ7GiIdTu)"><path d=" M 36.373 24.153 C 41.615 21.022 46.914 17.985 52.142 14.832 C 54.363 13.525 54.589 13.644 56.667 14.832 C 62.007 17.981 66.97 20.906 72.484 24.177 L 86.852 18.703 C 76.763 12.796 66.141 6.57 56.429 0.891 C 54.47 -0.297 54.292 -0.297 52.463 0.891 C 48.005 3.614 43.418 6.122 38.878 8.704 L 36.373 24.153 Z " fill="rgb(255,255,255)"/><path d=" M 11.922 47.416 L 11.922 40.778 C 11.922 38.831 11.922 38.593 13.442 37.667 C 21.382 33.049 29.552 28.135 36.373 24.153 L 38.878 8.704 L 29.165 14.416 C 19.519 20.186 11.121 24.945 2.518 30.15 C 0.44 31.338 0.143 31.931 0.143 34.152 L 0.143 41.859 L 11.922 47.416 Z " fill="rgb(255,255,255)"/><path d=" M 11.922 76.248 L 11.922 47.416 L 0.143 41.859 L 0.048 81.473 L 11.922 76.248 Z " fill="rgb(255,255,255)"/><path d=" M 32.846 101.007 C 26.281 97.184 19.734 93.33 13.193 89.465 C 11.899 88.705 11.875 88.538 11.875 87.09 L 11.922 76.248 L 0.048 81.473 L 0 93.538 C 0 95.44 -0.004 95.527 1.873 96.61 C 12.092 102.663 18.81 106.682 28.5 112.383 L 32.846 101.007 Z " fill="rgb(255,255,255)"/><path d=" M 78 113.789 C 84.908 109.66 91.843 105.576 98.787 101.506 C 99.723 100.965 100.051 100.172 99.772 99.131 C 99.111 96.617 98.402 94.096 97.753 91.602 C 97.124 89.168 94.737 89.892 93.122 90.842 C 84.241 96.267 74.39 101.972 66.345 106.707 L 78 113.789 Z " fill="rgb(255,255,255)"/><path d=" M 28.547 112.407 C 37.475 117.656 45.153 122.185 52.795 126.68 C 54.327 127.583 54.47 127.606 55.895 126.763 C 64.331 121.797 70.114 118.414 78.136 113.713 L 66.444 106.648 C 62.58 108.959 59.452 110.733 55.895 112.822 C 54.962 113.361 54.009 113.435 53.057 112.905 C 46.324 108.933 39.585 104.97 32.846 101.007 L 28.547 112.407 Z " fill="rgb(255,255,255)"/><path d=" M 72.484 24.177 C 79.589 28.409 86.857 32.373 93.859 36.776 C 95.604 37.797 97.207 37.465 97.73 35.589 C 98.418 33.093 99.098 30.595 99.772 28.096 L 99.986 27.336 C 100.065 26.844 99.808 26.359 99.357 26.148 C 95.167 23.703 91.011 21.201 86.852 18.703 L 72.484 24.177 Z " fill="rgb(255,255,255)"/><path d=" M 38.771 27.11 L 56.584 23.702 L 75.583 31.634 L 77.958 53.71 L 55.396 57.486 L 31.504 50.907 L 38.771 27.11 Z " fill="rgb(255,255,255)"/><path d=" M 20.092 55.633 L 31.504 50.907 L 55.396 57.486 L 77.958 53.71 L 87.838 62.438 L 56.204 70.418 L 38.878 63.352 L 20.092 55.633 Z " fill="rgb(255,255,255)"/><path d=" M 17.136 65.691 L 25.448 62.129 L 33.143 64.504 L 33.143 81.651 L 50.29 95.841 L 50.575 107.372 L 28.963 84.608 L 17.136 65.691 Z " fill="rgb(255,255,255)"/><path d=" M 94.001 68.648 L 77.448 86.971 L 54.09 106.778 L 55.277 96.732 L 73.315 84.014 L 81.627 68.648 L 86.947 66.867 L 94.001 68.648 Z " fill="rgb(255,255,255)"/><path d=" M 49.69 68.151 C 49.602 68.353 47.39 69.699 46.003 69.907 C 43.421 70.269 40.883 68.998 39.626 66.713 C 39.2 65.789 39.032 64.767 39.139 63.756" fill="rgb(255,255,255)"/><path d=" M 73.315 66.285 C 73.373 67.168 71.787 69.192 70.513 70.227 C 68.505 71.819 65.895 72.436 63.388 71.914 C 61.985 71.568 60.046 70.91 59.683 69.824" fill="rgb(255,255,255)"/></g><defs><filter id="IwPPGMVh9XiCZw0rAxuSntNTZ7GiIdTu" x="-200%" y="-200%" width="400%" height="400%" filterUnits="objectBoundingBox" color-interpolation-filters="sRGB"><feGaussianBlur xmlns="http://www.w3.org/2000/svg" in="SourceGraphic" stdDeviation="4.293609062839028"/><feOffset xmlns="http://www.w3.org/2000/svg" dx="0" dy="0" result="pf_100_offsetBlur"/><feFlood xmlns="http://www.w3.org/2000/svg" flood-color="#FFFFFF" flood-opacity="0.5"/><feComposite xmlns="http://www.w3.org/2000/svg" in2="pf_100_offsetBlur" operator="in" result="pf_100_dropShadow"/><feBlend xmlns="http://www.w3.org/2000/svg" in="SourceGraphic" in2="pf_100_dropShadow" mode="normal"/></filter></defs></g></svg>