<svg xmlns:xlink="http://www.w3.org/1999/xlink" xmlns="http://www.w3.org/2000/svg" id="svg5826" version="1.1"
     viewBox="0 0 78.176 99.327">
  <defs id="defs5820">
    <linearGradient id="linear-gradient-33" x1="304.88" x2="328.14" y1="157.16" y2="157.16"
                    gradientUnits="userSpaceOnUse">
      <stop id="stop40" offset="0" stop-color="#95c11f"/>
      <stop id="stop42" offset=".67" stop-color="#3aaa35"/>
      <stop id="stop44" offset="1" stop-color="#008d36"/>
    </linearGradient>
    <linearGradient id="linear-gradient-34" x1="304.88" x2="328.14" y1="195.99" y2="195.99"
                    gradientTransform="translate(4.91 -140.38) scale(2.42372)" xlink:href="#linear-gradient-33"/>
    <linearGradient id="linear-gradient-35" x1="293.14" x2="305.8" y1="171.38" y2="171.38"
                    xlink:href="#linear-gradient-33"/>
    <linearGradient id="linear-gradient-36" x1="30.59" x2="73.1" y1="131.66" y2="131.66"
                    xlink:href="#linear-gradient-33"/>
    <linearGradient id="linear-gradient-37" x1="0" x2="32.71" y1="145.15" y2="145.15" xlink:href="#linear-gradient-33"/>
    <linearGradient id="linear-gradient-38" x1="0" x2="9.97" y1="173.45" y2="173.45" xlink:href="#linear-gradient-33"/>
    <linearGradient id="linear-gradient-39" x1=".009" x2="27.62" y1="200.94" y2="200.94"
                    xlink:href="#linear-gradient-33"/>
    <linearGradient id="linear-gradient-40" x1="55.83" x2="84.07" y1="207.29" y2="207.29"
                    xlink:href="#linear-gradient-33"/>
    <linearGradient id="linear-gradient-41" x1="23.99" x2="65.67" y1="217.67" y2="217.67"
                    xlink:href="#linear-gradient-33"/>
    <linearGradient id="linear-gradient-42" x1="61" x2="84.19" y1="145.11" y2="145.11"
                    xlink:href="#linear-gradient-33"/>
    <linearGradient id="linear-gradient-43" x1="26.59" x2="65.68" y1="155.7" y2="155.7"
                    xlink:href="#linear-gradient-33"/>
    <linearGradient id="linear-gradient-44" x1="16.88" x2="73.9" y1="172.97" y2="172.97"
                    xlink:href="#linear-gradient-33"/>
    <linearGradient id="linear-gradient-45" x1="14.39" x2="42.52" y1="192.89" y2="192.89"
                    xlink:href="#linear-gradient-33"/>
    <linearGradient id="linear-gradient-46" x1="45.51" x2="79.12" y1="194.63" y2="194.63"
                    xlink:href="#linear-gradient-33"/>
    <linearGradient id="linear-gradient-47" x1="99.77" x2="118.38" y1="167.96" y2="167.96"
                    gradientTransform="translate(4.91 -140.38) scale(2.42372)" xlink:href="#linear-gradient-33"/>
    <linearGradient id="linear-gradient-48" x1="88.32" x2="102.06" y1="176.59" y2="176.59"
                    gradientTransform="translate(4.91 -140.38) scale(2.42372)" xlink:href="#linear-gradient-33"/>
    <linearGradient id="linear-gradient-49" x1="274.53" x2="288.01" y1="185.76" y2="185.76"
                    xlink:href="#linear-gradient-33"/>
    <linearGradient id="linear-gradient-50" x1="274.12" x2="288.41" y1="158.58" y2="158.58"
                    xlink:href="#linear-gradient-33"/>
    <linearGradient id="linear-gradient-51" x1="226.52" x2="269.94" y1="166.74" y2="166.74"
                    gradientTransform="translate(4.91 -140.38) scale(2.42372)" xlink:href="#linear-gradient-33"/>
    <linearGradient id="linear-gradient-52" x1="174.83" x2="222.37" y1="196.17" y2="196.17"
                    gradientTransform="translate(4.91 -140.38) scale(2.42372)" xlink:href="#linear-gradient-33"/>
    <linearGradient id="linear-gradient-53" x1="122.56" x2="171.21" y1="196.26" y2="196.26"
                    gradientTransform="translate(4.91 -140.38) scale(2.42372)" xlink:href="#linear-gradient-33"/>
    <linearGradient id="linearGradient4994" x1="304.88" x2="328.14" y1="157.16" y2="157.16"
                    gradientTransform="translate(4.91 -140.38) scale(2.42372)" gradientUnits="userSpaceOnUse"
                    xlink:href="#linear-gradient-33"/>
    <linearGradient id="linear-gradient-38-7" x1="0" x2="9.97" y1="173.45" y2="173.45"
                    gradientTransform="matrix(.91743 0 0 .91743 24.904 19.435)" xlink:href="#linear-gradient-33"/>
    <linearGradient id="linear-gradient-39-7" x1=".009" x2="27.62" y1="200.94" y2="200.94"
                    gradientTransform="matrix(.91743 0 0 .91743 24.904 19.435)" xlink:href="#linear-gradient-33"/>
    <linearGradient id="linear-gradient-40-9" x1="55.83" x2="84.07" y1="207.29" y2="207.29"
                    gradientTransform="matrix(.91743 0 0 .91743 24.904 19.435)" xlink:href="#linear-gradient-33"/>
    <linearGradient id="linear-gradient-41-7" x1="23.99" x2="65.67" y1="217.67" y2="217.67"
                    gradientTransform="matrix(.91743 0 0 .91743 24.904 19.435)" xlink:href="#linear-gradient-33"/>
    <linearGradient id="linear-gradient-46-3" x1="45.51" x2="79.12" y1="194.63" y2="194.63"
                    gradientTransform="matrix(.91743 0 0 .91743 24.904 19.435)" xlink:href="#linear-gradient-33"/>
    <linearGradient id="linear-gradient-45-9" x1="14.39" x2="42.52" y1="192.89" y2="192.89"
                    gradientTransform="matrix(.91743 0 0 .91743 24.904 19.435)" xlink:href="#linear-gradient-33"/>
    <linearGradient id="linear-gradient-44-6" x1="16.88" x2="73.9" y1="172.97" y2="172.97"
                    gradientTransform="matrix(.91743 0 0 .91743 24.904 19.435)" xlink:href="#linear-gradient-33"/>
    <linearGradient id="linear-gradient-43-5" x1="26.59" x2="65.68" y1="155.7" y2="155.7"
                    gradientTransform="matrix(.91743 0 0 .91743 24.904 19.435)" xlink:href="#linear-gradient-33"/>
    <linearGradient id="linear-gradient-42-4" x1="61" x2="84.19" y1="145.11" y2="145.11"
                    gradientTransform="matrix(.91743 0 0 .91743 24.904 19.435)" xlink:href="#linear-gradient-33"/>
    <linearGradient id="linear-gradient-36-0" x1="30.59" x2="73.1" y1="131.66" y2="131.66"
                    gradientTransform="matrix(.91743 0 0 .91743 24.904 19.435)" xlink:href="#linear-gradient-33"/>
    <linearGradient id="linear-gradient-37-7" x1="0" x2="32.71" y1="145.15" y2="145.15"
                    gradientTransform="matrix(.91743 0 0 .91743 24.904 19.435)" xlink:href="#linear-gradient-33"/>
    <linearGradient id="linear-gradient-38-6" x1="0" x2="9.97" y1="173.45" y2="173.45"
                    gradientTransform="matrix(.64128 0 0 .64128 449.803 294.751)" xlink:href="#linear-gradient-33"/>
    <linearGradient id="linear-gradient-39-0" x1=".009" x2="27.62" y1="200.94" y2="200.94"
                    gradientTransform="matrix(.64128 0 0 .64128 449.803 294.751)" xlink:href="#linear-gradient-33"/>
    <linearGradient id="linear-gradient-40-1" x1="55.83" x2="84.07" y1="207.29" y2="207.29"
                    gradientTransform="matrix(.64128 0 0 .64128 449.803 294.751)" xlink:href="#linear-gradient-33"/>
    <linearGradient id="linear-gradient-41-1" x1="23.99" x2="65.67" y1="217.67" y2="217.67"
                    gradientTransform="matrix(.64128 0 0 .64128 449.803 294.751)" xlink:href="#linear-gradient-33"/>
    <linearGradient id="linear-gradient-46-9" x1="45.51" x2="79.12" y1="194.63" y2="194.63"
                    gradientTransform="matrix(.64128 0 0 .64128 449.803 294.751)" xlink:href="#linear-gradient-33"/>
    <linearGradient id="linear-gradient-45-4" x1="14.39" x2="42.52" y1="192.89" y2="192.89"
                    gradientTransform="matrix(.64128 0 0 .64128 449.803 294.751)" xlink:href="#linear-gradient-33"/>
    <linearGradient id="linear-gradient-44-1" x1="16.88" x2="73.9" y1="172.97" y2="172.97"
                    gradientTransform="matrix(.64128 0 0 .64128 449.803 294.751)" xlink:href="#linear-gradient-33"/>
    <linearGradient id="linear-gradient-43-3" x1="26.59" x2="65.68" y1="155.7" y2="155.7"
                    gradientTransform="matrix(.64128 0 0 .64128 449.803 294.751)" xlink:href="#linear-gradient-33"/>
    <linearGradient id="linear-gradient-42-8" x1="61" x2="84.19" y1="145.11" y2="145.11"
                    gradientTransform="matrix(.64128 0 0 .64128 449.803 294.751)" xlink:href="#linear-gradient-33"/>
    <linearGradient id="linear-gradient-36-8" x1="30.59" x2="73.1" y1="131.66" y2="131.66"
                    gradientTransform="matrix(.64128 0 0 .64128 449.803 294.751)" xlink:href="#linear-gradient-33"/>
    <linearGradient id="linear-gradient-37-4" x1="0" x2="32.71" y1="145.15" y2="145.15"
                    gradientTransform="matrix(.64128 0 0 .64128 449.803 294.751)" xlink:href="#linear-gradient-33"/>
  </defs>
  <g id="layer1" transform="translate(-24.408 -130.454)">
    <path id="path970-5-5-2-2" fill="url(#linear-gradient-36-0)" stroke="#010101" stroke-dasharray="none"
          stroke-linecap="round" stroke-linejoin="round" stroke-miterlimit="7.95" stroke-width=".917"
          d="M52.968 149.573c4.05-2.42 8.144-4.766 12.183-7.202 1.716-1.01 1.89-.918 3.496 0 4.125 2.433 7.96 4.693 12.22 7.22l11.1-4.23c-7.795-4.563-16.001-9.373-23.504-13.76-1.514-.918-1.651-.918-3.064 0-3.444 2.103-6.988 4.04-10.496 6.036z"/>
    <path id="path972-8-25-2-3" fill="url(#linear-gradient-37-7)" stroke="#010101" stroke-dasharray="none"
          stroke-linecap="round" stroke-linejoin="round" stroke-miterlimit="7.95" stroke-width=".917"
          d="M34.078 167.545v-5.128c0-1.505 0-1.689 1.174-2.404 6.134-3.568 12.446-7.364 17.716-10.44l1.935-11.936-7.504 4.413c-7.452 4.458-13.94 8.134-20.587 12.156-1.606.917-1.835 1.376-1.835 3.091v5.954z"/>
    <path id="path974-2-1-2-7" fill="url(#linear-gradient-38-7)" stroke="#010101" stroke-dasharray="none"
          stroke-linecap="round" stroke-linejoin="round" stroke-miterlimit="7.95" stroke-width=".917"
          d="M34.078 189.82v-22.275l-9.101-4.294-.073 30.606z"/>
    <path id="path976-7-6-2-4" fill="url(#linear-gradient-39-7)" stroke="#010101" stroke-dasharray="none"
          stroke-linecap="round" stroke-linejoin="round" stroke-miterlimit="7.95" stroke-width=".917"
          d="M50.243 208.948a2754.741 2754.741 0 01-15.184-8.917c-1-.587-1.018-.715-1.018-1.835l.037-8.376-9.175 4.037-.036 9.32c0 1.47-.003 1.537 1.447 2.375 7.894 4.676 13.085 7.781 20.571 12.185z"/>
    <path id="path978-9-7-2-7" fill="url(#linear-gradient-40-9)" stroke="#010101" stroke-dasharray="none"
          stroke-linecap="round" stroke-linejoin="round" stroke-miterlimit="7.95" stroke-width=".917"
          d="M85.128 218.824c5.337-3.19 10.696-6.346 16.06-9.49.723-.418.977-1.03.761-1.835-.51-1.942-1.059-3.89-1.56-5.817-.486-1.88-2.33-1.32-3.577-.587-6.862 4.191-14.473 8.6-20.688 12.257z"/>
    <path id="path980-7-5-2-2" fill="url(#linear-gradient-41-7)" stroke="#010101" stroke-dasharray="none"
          stroke-linecap="round" stroke-linejoin="round" stroke-miterlimit="7.95" stroke-width=".917"
          d="M46.922 217.756c6.897 4.055 12.83 7.554 18.734 11.027 1.183.698 1.293.716 2.394.064 6.518-3.837 10.985-6.45 17.184-10.082l-9.034-5.458c-2.985 1.785-5.402 3.156-8.15 4.77-.72.416-1.457.473-2.192.064-5.202-3.07-10.409-6.13-15.615-9.193z"/>
    <path id="path982-3-2-2-4" fill="url(#linear-gradient-42-4)" stroke="#010101" stroke-dasharray="none"
          stroke-linecap="round" stroke-linejoin="round" stroke-miterlimit="7.95" stroke-width=".917"
          d="M80.867 149.59c5.49 3.27 11.104 6.333 16.513 9.735 1.349.789 2.588.532 2.991-.918a1096.13 1096.13 0 001.578-5.789l.165-.587a.862.862 0 00-.486-.917c-3.237-1.89-6.448-3.822-9.66-5.752z"/>
    <path id="path986-5-0-2-2" fill="url(#linear-gradient-43-5)" stroke="#010101" stroke-dasharray="none"
          stroke-miterlimit="7.95" stroke-width=".917"
          d="M54.82 151.857l13.762-2.633 14.68 6.128 1.834 17.055-17.431 2.918-18.459-5.083z"/>
    <path id="path988-0-7-2-0" fill="url(#linear-gradient-44-6)" stroke="#010101" stroke-dasharray="none"
          stroke-miterlimit="7.95" stroke-width=".917"
          d="M40.39 173.894l8.816-3.652 18.459 5.083 17.431-2.918 7.633 6.743-24.44 6.166-13.386-5.46z"/>
    <path id="path990-2-6-2-7" fill="url(#linear-gradient-45-9)" stroke="#010101" stroke-dasharray="none"
          stroke-miterlimit="7.95" stroke-width=".917"
          d="M38.105 181.664l6.422-2.752 5.945 1.835v13.247l13.248 10.964.22 8.908-16.697-17.587z"/>
    <path id="path992-3-6-2-2" fill="url(#linear-gradient-46-3)" stroke="#010101" stroke-dasharray="none"
          stroke-miterlimit="7.95" stroke-width=".917"
          d="M97.49 183.949l-12.788 14.155-18.046 15.303.917-7.761 13.936-9.826 6.422-11.871 4.11-1.377z"/>
    <path id="path996-9-8-2-9" fill="#fff" stroke="#010101" stroke-dasharray="none" stroke-miterlimit="7.95"
          stroke-width=".917"
          d="M63.257 183.565c-.068.156-1.778 1.195-2.849 1.356a4.853 4.853 0 01-4.927-2.468 4.358 4.358 0 01-.376-2.284"
          class="cls-15"/>
    <path id="path1004-8-7-2-8" fill="#fff" stroke="#010101" stroke-dasharray="none" stroke-miterlimit="7.95"
          stroke-width=".917"
          d="M81.509 182.123c.044.682-1.18 2.245-2.165 3.046a6.67 6.67 0 01-5.505 1.303c-1.083-.268-2.582-.776-2.862-1.615"
          class="cls-15"/>
  </g>
</svg>
